# xmcd
#
# Track frame offsets: 
#        150
#        12977
#        26427
#        39000
#        51527
#        64282
#        77130
#        88412
#        100792
#        115025
#        128325
#        141070
#        152352
#        165295
#        178642
#        191147
#        203647
#        217332
#        230502
#        243365
#        255600
#        266717
#
# Disc length: 3722 seconds
#
# Revision: 1
# Processed by: cddbd v1.5.2PL0 Copyright (c) Steve Scherf et al.
# Submitted via: ExactAudioCopy v0.95b4
#
DISCID=290e8816
DTITLE=Various Artist - Blues, Sex and Rock'n'Roll
DYEAR=1993
DGENRE=Blues
TTITLE0=Willie Mae "Big Mama" Thornton - Hound Dog
TTITLE1=Big Joe Turner - Shake, Rattle and Roll
TTITLE2=Floyd Dixon - Hey Bartender
TTITLE3=Bobby Bland - Farther On Up The Road
TTITLE4=Bo Diddley - Road Runner
TTITLE5=Little Walter - Boom Boom (Out Go The Lights)
TTITLE6=Bo Diddley - Who Do You Love ?
TTITLE7=Muddy Waters - You Need Love
TTITLE8=Howlin' Wolf - Smokestack Lightnin'
TTITLE9=Muddy Waters - Mannish Boy
TTITLE10=Howlin' Wolf - Back Door Man
TTITLE11=John Lee Hooker - Please Don't Go
TTITLE12=Muddy Waters - I Just Want To Make Love To You
TTITLE13=Little Walter - Key To The Highway
TTITLE14=Muddy Waters - You Shook Me
TTITLE15=Howlin' Wolf - Spoonful
TTITLE16=John Lee Hooker - One Bourbon, One Scotch, One Beer
TTITLE17=Arthur "Big Boy" Crudup - That's All Right
TTITLE18=Bo Diddley - Pills
TTITLE19=Little Walter - Mellow Down Easy
TTITLE20=Eddie Floyd - Raise Your Hand
TTITLE21=Albert King - Born Under A Bad Sign
EXTD=
EXTT0=
EXTT1=
EXTT2=
EXTT3=
EXTT4=
EXTT5=
EXTT6=
EXTT7=
EXTT8=
EXTT9=
EXTT10=
EXTT11=
EXTT12=
EXTT13=
EXTT14=
EXTT15=
EXTT16=
EXTT17=
EXTT18=
EXTT19=
EXTT20=
EXTT21=
PLAYORDER=
